<?xml version="1.0" encoding="utf-8"?>
<!-- Generator: Adobe Illustrator 23.0.3, SVG Export Plug-In . SVG Version: 6.00 Build 0)  -->
<svg version="1.2" baseProfile="tiny" id="Layer_1" xmlns="http://www.w3.org/2000/svg" xmlns:xlink="http://www.w3.org/1999/xlink"
	 x="0px" y="0px" viewBox="0 0 1024 512" xml:space="preserve">
<polygon points="768,29.87 841.47,178.75 1005.76,202.62 886.88,318.5 914.95,482.13 768,404.87 621.05,482.13 649.12,318.5 
	530.24,202.62 694.53,178.75 "/>
<path d="M493.76,202.62l-164.29-23.87L256,29.87l-73.47,148.87L18.24,202.62L137.12,318.5l-28.06,163.63L256,404.87l146.95,77.25
	L374.88,318.5L493.76,202.62z M256,317.17l-56.43,29.67L210.35,284l-45.65-44.5l63.09-9.17L256,173.17l28.21,57.17l63.09,9.17
	L301.65,284l10.78,62.83L256,317.17z"/>
</svg>
